<svg xmlns="http://www.w3.org/2000/svg" xmlns:xlink="http://www.w3.org/1999/xlink" width="1080" zoomAndPan="magnify" viewBox="0 0 810 809.999993" height="1080" preserveAspectRatio="xMidYMid meet" version="1.0"><defs><clipPath id="11973d6eba"><path d="M 118.800781 404.089844 L 333.621094 404.089844 L 333.621094 588.632812 L 118.800781 588.632812 Z M 118.800781 404.089844 " clip-rule="nonzero"/></clipPath><clipPath id="cbea07f2f7"><path d="M 333.542969 496.359375 L 279.855469 588.632812 L 172.484375 588.632812 L 118.800781 496.359375 L 172.484375 404.089844 L 279.855469 404.089844 Z M 333.542969 496.359375 " clip-rule="nonzero"/></clipPath><clipPath id="89299cc0d1"><path d="M 0.800781 0.0898438 L 215.601562 0.0898438 L 215.601562 184.632812 L 0.800781 184.632812 Z M 0.800781 0.0898438 " clip-rule="nonzero"/></clipPath><clipPath id="46692c6943"><path d="M 215.542969 92.359375 L 161.855469 184.632812 L 54.484375 184.632812 L 0.800781 92.359375 L 54.484375 0.0898438 L 161.855469 0.0898438 Z M 215.542969 92.359375 " clip-rule="nonzero"/></clipPath><clipPath id="eb56dba4ff"><rect x="0" width="216" y="0" height="185"/></clipPath><clipPath id="cbe0b4c2be"><path d="M 124.589844 409.050781 L 327.847656 409.050781 L 327.847656 583.664062 L 124.589844 583.664062 Z M 124.589844 409.050781 " clip-rule="nonzero"/></clipPath><clipPath id="e38701cf6d"><path d="M 327.773438 496.359375 L 276.976562 583.664062 L 175.382812 583.664062 L 124.589844 496.359375 L 175.382812 409.050781 L 276.976562 409.050781 Z M 327.773438 496.359375 " clip-rule="nonzero"/></clipPath><clipPath id="4eb7b13ff9"><path d="M 0.589844 0.0507812 L 203.839844 0.0507812 L 203.839844 174.664062 L 0.589844 174.664062 Z M 0.589844 0.0507812 " clip-rule="nonzero"/></clipPath><clipPath id="ced76f1730"><path d="M 203.773438 87.359375 L 152.976562 174.664062 L 51.382812 174.664062 L 0.589844 87.359375 L 51.382812 0.0507812 L 152.976562 0.0507812 Z M 203.773438 87.359375 " clip-rule="nonzero"/></clipPath><clipPath id="5af2d5e986"><rect x="0" width="204" y="0" height="175"/></clipPath><clipPath id="1fc7e0378b"><path d="M 279.433594 496.359375 L 494.253906 496.359375 L 494.253906 680.90625 L 279.433594 680.90625 Z M 279.433594 496.359375 " clip-rule="nonzero"/></clipPath><clipPath id="de0eb2147f"><path d="M 494.175781 588.632812 L 440.492188 680.90625 L 333.121094 680.90625 L 279.433594 588.632812 L 333.121094 496.359375 L 440.492188 496.359375 Z M 494.175781 588.632812 " clip-rule="nonzero"/></clipPath><clipPath id="7294f97166"><path d="M 0.433594 0.359375 L 215.253906 0.359375 L 215.253906 184.90625 L 0.433594 184.90625 Z M 0.433594 0.359375 " clip-rule="nonzero"/></clipPath><clipPath id="40a12d8edf"><path d="M 215.175781 92.632812 L 161.492188 184.90625 L 54.121094 184.90625 L 0.433594 92.632812 L 54.121094 0.359375 L 161.492188 0.359375 Z M 215.175781 92.632812 " clip-rule="nonzero"/></clipPath><clipPath id="be88cdd5bd"><rect x="0" width="216" y="0" height="185"/></clipPath><clipPath id="082bba30ed"><path d="M 285.222656 501.324219 L 488.484375 501.324219 L 488.484375 675.9375 L 285.222656 675.9375 Z M 285.222656 501.324219 " clip-rule="nonzero"/></clipPath><clipPath id="34a9eaaf6a"><path d="M 488.410156 588.632812 L 437.613281 675.9375 L 336.019531 675.9375 L 285.222656 588.632812 L 336.019531 501.324219 L 437.613281 501.324219 Z M 488.410156 588.632812 " clip-rule="nonzero"/></clipPath><clipPath id="6e2b475a7d"><path d="M 0.222656 0.324219 L 203.484375 0.324219 L 203.484375 174.9375 L 0.222656 174.9375 Z M 0.222656 0.324219 " clip-rule="nonzero"/></clipPath><clipPath id="937e6d14f0"><path d="M 203.410156 87.632812 L 152.613281 174.9375 L 51.019531 174.9375 L 0.222656 87.632812 L 51.019531 0.324219 L 152.613281 0.324219 Z M 203.410156 87.632812 " clip-rule="nonzero"/></clipPath><clipPath id="4c26c8cb89"><rect x="0" width="204" y="0" height="175"/></clipPath><clipPath id="03754c7831"><path d="M 440.070312 404.089844 L 654.890625 404.089844 L 654.890625 588.632812 L 440.070312 588.632812 Z M 440.070312 404.089844 " clip-rule="nonzero"/></clipPath><clipPath id="74be0f9989"><path d="M 654.8125 496.359375 L 601.125 588.632812 L 493.753906 588.632812 L 440.070312 496.359375 L 493.753906 404.089844 L 601.125 404.089844 Z M 654.8125 496.359375 " clip-rule="nonzero"/></clipPath><clipPath id="b5a2856c11"><path d="M 0.0703125 0.0898438 L 214.890625 0.0898438 L 214.890625 184.632812 L 0.0703125 184.632812 Z M 0.0703125 0.0898438 " clip-rule="nonzero"/></clipPath><clipPath id="a4d291c3e0"><path d="M 214.8125 92.359375 L 161.125 184.632812 L 53.753906 184.632812 L 0.0703125 92.359375 L 53.753906 0.0898438 L 161.125 0.0898438 Z M 214.8125 92.359375 " clip-rule="nonzero"/></clipPath><clipPath id="70940caf6a"><rect x="0" width="215" y="0" height="185"/></clipPath><clipPath id="4a3157d4a6"><path d="M 445.855469 409.050781 L 649.117188 409.050781 L 649.117188 583.664062 L 445.855469 583.664062 Z M 445.855469 409.050781 " clip-rule="nonzero"/></clipPath><clipPath id="5a736419eb"><path d="M 649.042969 496.359375 L 598.246094 583.664062 L 496.652344 583.664062 L 445.855469 496.359375 L 496.652344 409.050781 L 598.246094 409.050781 Z M 649.042969 496.359375 " clip-rule="nonzero"/></clipPath><clipPath id="5e4b572963"><path d="M 0.855469 0.0507812 L 204.117188 0.0507812 L 204.117188 174.664062 L 0.855469 174.664062 Z M 0.855469 0.0507812 " clip-rule="nonzero"/></clipPath><clipPath id="8796011607"><path d="M 204.042969 87.359375 L 153.246094 174.664062 L 51.652344 174.664062 L 0.855469 87.359375 L 51.652344 0.0507812 L 153.246094 0.0507812 Z M 204.042969 87.359375 " clip-rule="nonzero"/></clipPath><clipPath id="8e76bb4184"><rect x="0" width="205" y="0" height="175"/></clipPath><clipPath id="a5d2004b32"><path d="M 320.800781 681 L 451.824219 681 L 451.824219 743 L 320.800781 743 Z M 320.800781 681 " clip-rule="nonzero"/></clipPath><clipPath id="216f1a64d6"><path d="M 599 488 L 698 488 L 698 612 L 599 612 Z M 599 488 " clip-rule="nonzero"/></clipPath><clipPath id="fa2d218e6d"><path d="M 772.820312 547.925781 L 707.953125 661.765625 L 586.144531 592.359375 L 651.015625 478.519531 Z M 772.820312 547.925781 " clip-rule="nonzero"/></clipPath><clipPath id="96553265db"><path d="M 772.820312 547.925781 L 707.953125 661.765625 L 586.144531 592.359375 L 651.015625 478.519531 Z M 772.820312 547.925781 " clip-rule="nonzero"/></clipPath><clipPath id="e9d89db377"><path d="M 675 550 L 746 550 L 746 622 L 675 622 Z M 675 550 " clip-rule="nonzero"/></clipPath><clipPath id="cd9285f19b"><path d="M 772.820312 547.925781 L 707.953125 661.765625 L 586.144531 592.359375 L 651.015625 478.519531 Z M 772.820312 547.925781 " clip-rule="nonzero"/></clipPath><clipPath id="a95bc854ab"><path d="M 772.820312 547.925781 L 707.953125 661.765625 L 586.144531 592.359375 L 651.015625 478.519531 Z M 772.820312 547.925781 " clip-rule="nonzero"/></clipPath><clipPath id="b1ef4e51b8"><path d="M 76 490 L 175 490 L 175 615 L 76 615 Z M 76 490 " clip-rule="nonzero"/></clipPath><clipPath id="66544cbd26"><path d="M 66.851562 665.203125 L 1.386719 551.707031 L 122.828125 481.65625 L 188.292969 595.152344 Z M 66.851562 665.203125 " clip-rule="nonzero"/></clipPath><clipPath id="6e74d54a61"><path d="M 66.851562 665.203125 L 1.386719 551.707031 L 122.828125 481.65625 L 188.292969 595.152344 Z M 66.851562 665.203125 " clip-rule="nonzero"/></clipPath><clipPath id="9c188a2b39"><path d="M 30 556 L 101 556 L 101 628 L 30 628 Z M 30 556 " clip-rule="nonzero"/></clipPath><clipPath id="8c8969c8f0"><path d="M 66.851562 665.203125 L 1.386719 551.707031 L 122.828125 481.65625 L 188.292969 595.152344 Z M 66.851562 665.203125 " clip-rule="nonzero"/></clipPath><clipPath id="73e2a8b81c"><path d="M 66.851562 665.203125 L 1.386719 551.707031 L 122.828125 481.65625 L 188.292969 595.152344 Z M 66.851562 665.203125 " clip-rule="nonzero"/></clipPath><clipPath id="97d021c2a6"><path d="M 164 614 L 313 614 L 313 708 L 164 708 Z M 164 614 " clip-rule="nonzero"/></clipPath><clipPath id="5c078afec1"><path d="M 195.027344 734.558594 L 162.820312 615.679688 L 281.695312 583.472656 L 313.902344 702.351562 Z M 195.027344 734.558594 " clip-rule="nonzero"/></clipPath><clipPath id="33964fdd00"><path d="M 195.027344 734.558594 L 162.820312 615.679688 L 281.695312 583.472656 L 313.902344 702.351562 Z M 195.027344 734.558594 " clip-rule="nonzero"/></clipPath><clipPath id="cca5db510b"><path d="M 457 605 L 606 605 L 606 700 L 457 700 Z M 457 605 " clip-rule="nonzero"/></clipPath><clipPath id="213105c3d1"><path d="M 574.894531 726.03125 L 456.019531 693.816406 L 488.230469 574.941406 L 607.105469 607.15625 Z M 574.894531 726.03125 " clip-rule="nonzero"/></clipPath><clipPath id="0380e9756c"><path d="M 574.894531 726.03125 L 456.019531 693.816406 L 488.230469 574.941406 L 607.105469 607.15625 Z M 574.894531 726.03125 " clip-rule="nonzero"/></clipPath><clipPath id="6506694172"><path d="M 440.367188 221.371094 L 655.191406 221.371094 L 655.191406 405.917969 L 440.367188 405.917969 Z M 440.367188 221.371094 " clip-rule="nonzero"/></clipPath><clipPath id="21c5404f4e"><path d="M 440.445312 313.644531 L 494.132812 221.371094 L 601.503906 221.371094 L 655.191406 313.644531 L 601.503906 405.917969 L 494.132812 405.917969 Z M 440.445312 313.644531 " clip-rule="nonzero"/></clipPath><clipPath id="a2a9fed204"><path d="M 0.398438 0.371094 L 215.191406 0.371094 L 215.191406 184.917969 L 0.398438 184.917969 Z M 0.398438 0.371094 " clip-rule="nonzero"/></clipPath><clipPath id="548a35a71f"><path d="M 0.445312 92.644531 L 54.132812 0.371094 L 161.503906 0.371094 L 215.191406 92.644531 L 161.503906 184.917969 L 54.132812 184.917969 Z M 0.445312 92.644531 " clip-rule="nonzero"/></clipPath><clipPath id="1e9d255863"><rect x="0" width="216" y="0" height="185"/></clipPath><clipPath id="d6bf3c7bd7"><path d="M 446.152344 226.339844 L 649.410156 226.339844 L 649.410156 400.953125 L 446.152344 400.953125 Z M 446.152344 226.339844 " clip-rule="nonzero"/></clipPath><clipPath id="e550bc9ca0"><path d="M 446.226562 313.644531 L 497.023438 226.339844 L 598.613281 226.339844 L 649.410156 313.644531 L 598.613281 400.953125 L 497.023438 400.953125 Z M 446.226562 313.644531 " clip-rule="nonzero"/></clipPath><clipPath id="bb3ec98d58"><path d="M 0.160156 0.339844 L 203.410156 0.339844 L 203.410156 174.953125 L 0.160156 174.953125 Z M 0.160156 0.339844 " clip-rule="nonzero"/></clipPath><clipPath id="c951d9a120"><path d="M 0.226562 87.644531 L 51.023438 0.339844 L 152.613281 0.339844 L 203.410156 87.644531 L 152.613281 174.953125 L 51.023438 174.953125 Z M 0.226562 87.644531 " clip-rule="nonzero"/></clipPath><clipPath id="0dfa6dc3ac"><rect x="0" width="204" y="0" height="175"/></clipPath><clipPath id="b7a9ab0b0d"><path d="M 279.734375 129.101562 L 494.554688 129.101562 L 494.554688 313.644531 L 279.734375 313.644531 Z M 279.734375 129.101562 " clip-rule="nonzero"/></clipPath><clipPath id="35a90d631a"><path d="M 279.8125 221.371094 L 333.5 129.101562 L 440.871094 129.101562 L 494.554688 221.371094 L 440.871094 313.644531 L 333.5 313.644531 Z M 279.8125 221.371094 " clip-rule="nonzero"/></clipPath><clipPath id="7446e1bef6"><path d="M 0.734375 0.101562 L 215.554688 0.101562 L 215.554688 184.644531 L 0.734375 184.644531 Z M 0.734375 0.101562 " clip-rule="nonzero"/></clipPath><clipPath id="495fa343a3"><path d="M 0.8125 92.371094 L 54.5 0.101562 L 161.871094 0.101562 L 215.554688 92.371094 L 161.871094 184.644531 L 54.5 184.644531 Z M 0.8125 92.371094 " clip-rule="nonzero"/></clipPath><clipPath id="feb97c00f5"><rect x="0" width="216" y="0" height="185"/></clipPath><clipPath id="979b69a534"><path d="M 285.515625 134.066406 L 488.777344 134.066406 L 488.777344 308.679688 L 285.515625 308.679688 Z M 285.515625 134.066406 " clip-rule="nonzero"/></clipPath><clipPath id="d7921989b0"><path d="M 285.589844 221.371094 L 336.386719 134.066406 L 437.980469 134.066406 L 488.777344 221.371094 L 437.980469 308.679688 L 336.386719 308.679688 Z M 285.589844 221.371094 " clip-rule="nonzero"/></clipPath><clipPath id="8dac986c77"><path d="M 0.515625 0.0664062 L 203.777344 0.0664062 L 203.777344 174.679688 L 0.515625 174.679688 Z M 0.515625 0.0664062 " clip-rule="nonzero"/></clipPath><clipPath id="360359b95b"><path d="M 0.589844 87.371094 L 51.386719 0.0664062 L 152.980469 0.0664062 L 203.777344 87.371094 L 152.980469 174.679688 L 51.386719 174.679688 Z M 0.589844 87.371094 " clip-rule="nonzero"/></clipPath><clipPath id="ae148bcd02"><rect x="0" width="204" y="0" height="175"/></clipPath><clipPath id="c5bbf4de80"><path d="M 119.097656 221.371094 L 333.921875 221.371094 L 333.921875 405.917969 L 119.097656 405.917969 Z M 119.097656 221.371094 " clip-rule="nonzero"/></clipPath><clipPath id="2c35d60ce4"><path d="M 119.179688 313.644531 L 172.863281 221.371094 L 280.234375 221.371094 L 333.921875 313.644531 L 280.234375 405.917969 L 172.863281 405.917969 Z M 119.179688 313.644531 " clip-rule="nonzero"/></clipPath><clipPath id="2433aa01f6"><path d="M 0.0976562 0.371094 L 214.921875 0.371094 L 214.921875 184.917969 L 0.0976562 184.917969 Z M 0.0976562 0.371094 " clip-rule="nonzero"/></clipPath><clipPath id="a6f394378b"><path d="M 0.179688 92.644531 L 53.863281 0.371094 L 161.234375 0.371094 L 214.921875 92.644531 L 161.234375 184.917969 L 53.863281 184.917969 Z M 0.179688 92.644531 " clip-rule="nonzero"/></clipPath><clipPath id="9a0b34604a"><rect x="0" width="215" y="0" height="185"/></clipPath><clipPath id="9557bd5d72"><path d="M 124.882812 226.339844 L 328.140625 226.339844 L 328.140625 400.953125 L 124.882812 400.953125 Z M 124.882812 226.339844 " clip-rule="nonzero"/></clipPath><clipPath id="54fce126ab"><path d="M 124.957031 313.644531 L 175.753906 226.339844 L 277.347656 226.339844 L 328.140625 313.644531 L 277.347656 400.953125 L 175.753906 400.953125 Z M 124.957031 313.644531 " clip-rule="nonzero"/></clipPath><clipPath id="372b251142"><path d="M 0.882812 0.339844 L 204.140625 0.339844 L 204.140625 174.953125 L 0.882812 174.953125 Z M 0.882812 0.339844 " clip-rule="nonzero"/></clipPath><clipPath id="0a0b80b588"><path d="M 0.957031 87.644531 L 51.753906 0.339844 L 153.347656 0.339844 L 204.140625 87.644531 L 153.347656 174.953125 L 51.753906 174.953125 Z M 0.957031 87.644531 " clip-rule="nonzero"/></clipPath><clipPath id="e32c909a82"><rect x="0" width="205" y="0" height="175"/></clipPath><clipPath id="ac06aee261"><path d="M 322.15625 67 L 453.179688 67 L 453.179688 129 L 322.15625 129 Z M 322.15625 67 " clip-rule="nonzero"/></clipPath><clipPath id="3630e7967f"><path d="M 350 0.00390625 L 422 0.00390625 L 422 71 L 350 71 Z M 350 0.00390625 " clip-rule="nonzero"/></clipPath><clipPath id="169afa0140"><path d="M 76 198 L 175 198 L 175 322 L 76 322 Z M 76 198 " clip-rule="nonzero"/></clipPath><clipPath id="a8e9f9db2f"><path d="M 1.160156 262.078125 L 66.027344 148.238281 L 187.835938 217.644531 L 122.96875 331.484375 Z M 1.160156 262.078125 " clip-rule="nonzero"/></clipPath><clipPath id="cd341852ea"><path d="M 1.160156 262.078125 L 66.027344 148.238281 L 187.835938 217.644531 L 122.96875 331.484375 Z M 1.160156 262.078125 " clip-rule="nonzero"/></clipPath><clipPath id="1b50afd599"><path d="M 28 188 L 99 188 L 99 260 L 28 260 Z M 28 188 " clip-rule="nonzero"/></clipPath><clipPath id="561bc07799"><path d="M 1.160156 262.078125 L 66.027344 148.238281 L 187.835938 217.644531 L 122.96875 331.484375 Z M 1.160156 262.078125 " clip-rule="nonzero"/></clipPath><clipPath id="2a0805886f"><path d="M 1.160156 262.078125 L 66.027344 148.238281 L 187.835938 217.644531 L 122.96875 331.484375 Z M 1.160156 262.078125 " clip-rule="nonzero"/></clipPath><clipPath id="9de1d2e9f3"><path d="M 599 195 L 698 195 L 698 320 L 599 320 Z M 599 195 " clip-rule="nonzero"/></clipPath><clipPath id="9ce7637a6c"><path d="M 707.128906 144.800781 L 772.597656 258.296875 L 651.15625 328.347656 L 585.691406 214.851562 Z M 707.128906 144.800781 " clip-rule="nonzero"/></clipPath><clipPath id="e34676469b"><path d="M 707.128906 144.800781 L 772.597656 258.296875 L 651.15625 328.347656 L 585.691406 214.851562 Z M 707.128906 144.800781 " clip-rule="nonzero"/></clipPath><clipPath id="2b6df841cb"><path d="M 673 182 L 744 182 L 744 254 L 673 254 Z M 673 182 " clip-rule="nonzero"/></clipPath><clipPath id="929cfdf3b0"><path d="M 707.128906 144.800781 L 772.597656 258.296875 L 651.15625 328.347656 L 585.691406 214.851562 Z M 707.128906 144.800781 " clip-rule="nonzero"/></clipPath><clipPath id="1c74df7f03"><path d="M 707.128906 144.800781 L 772.597656 258.296875 L 651.15625 328.347656 L 585.691406 214.851562 Z M 707.128906 144.800781 " clip-rule="nonzero"/></clipPath><clipPath id="103a306e32"><path d="M 461 102 L 610 102 L 610 196 L 461 196 Z M 461 102 " clip-rule="nonzero"/></clipPath><clipPath id="b6d88da490"><path d="M 578.957031 75.445312 L 611.164062 194.324219 L 492.289062 226.53125 L 460.082031 107.652344 Z M 578.957031 75.445312 " clip-rule="nonzero"/></clipPath><clipPath id="9a79333746"><path d="M 578.957031 75.445312 L 611.164062 194.324219 L 492.289062 226.53125 L 460.082031 107.652344 Z M 578.957031 75.445312 " clip-rule="nonzero"/></clipPath><clipPath id="f8d395da46"><path d="M 168 110 L 317 110 L 317 205 L 168 205 Z M 168 110 " clip-rule="nonzero"/></clipPath><clipPath id="a1a784406c"><path d="M 199.09375 83.972656 L 317.96875 116.1875 L 285.753906 235.0625 L 166.878906 202.847656 Z M 199.09375 83.972656 " clip-rule="nonzero"/></clipPath><clipPath id="663a3173db"><path d="M 199.09375 83.972656 L 317.96875 116.1875 L 285.753906 235.0625 L 166.878906 202.847656 Z M 199.09375 83.972656 " clip-rule="nonzero"/></clipPath><clipPath id="4c038e7cd3"><path d="M 49 319 L 95 319 L 95 489 L 49 489 Z M 49 319 " clip-rule="nonzero"/></clipPath><clipPath id="0ce82dad8f"><path d="M 1.164062 404.085938 L 88.25 316.996094 L 175.339844 404.085938 L 88.25 491.171875 Z M 1.164062 404.085938 " clip-rule="nonzero"/></clipPath><clipPath id="3788987777"><path d="M 1.164062 404.085938 L 88.25 316.996094 L 175.339844 404.085938 L 88.25 491.171875 Z M 1.164062 404.085938 " clip-rule="nonzero"/></clipPath><clipPath id="7655b60c61"><path d="M 679 319 L 725 319 L 725 489 L 679 489 Z M 679 319 " clip-rule="nonzero"/></clipPath><clipPath id="376c6094b7"><path d="M 772.824219 404.085938 L 685.734375 491.171875 L 598.644531 404.085938 L 685.734375 316.996094 Z M 772.824219 404.085938 " clip-rule="nonzero"/></clipPath><clipPath id="d844636a76"><path d="M 772.824219 404.085938 L 685.734375 491.171875 L 598.644531 404.085938 L 685.734375 316.996094 Z M 772.824219 404.085938 " clip-rule="nonzero"/></clipPath><clipPath id="73ba94b25c"><rect x="0" width="774" y="0" height="810"/></clipPath></defs><g transform="matrix(1, 0, 0, 1, 18, 0.000000000000039746)"><g clip-path="url(#73ba94b25c)"><g clip-path="url(#11973d6eba)"><g clip-path="url(#cbea07f2f7)"><g transform="matrix(1, 0, 0, 1, 118, 404)"><g clip-path="url(#eb56dba4ff)"><g clip-path="url(#89299cc0d1)"><g clip-path="url(#46692c6943)"><path fill="#760000" d="M 0.800781 0.0898438 L 215.621094 0.0898438 L 215.621094 184.632812 L 0.800781 184.632812 Z M 0.800781 0.0898438 " fill-opacity="1" fill-rule="nonzero"/></g></g></g></g></g></g><g clip-path="url(#cbe0b4c2be)"><g clip-path="url(#e38701cf6d)"><g transform="matrix(1, 0, 0, 1, 124, 409)"><g clip-path="url(#5af2d5e986)"><g clip-path="url(#4eb7b13ff9)"><g clip-path="url(#ced76f1730)"><path fill="#42035b" d="M 0.589844 0.0507812 L 203.847656 0.0507812 L 203.847656 174.664062 L 0.589844 174.664062 Z M 0.589844 0.0507812 " fill-opacity="1" fill-rule="nonzero"/></g></g></g></g></g></g><g clip-path="url(#1fc7e0378b)"><g clip-path="url(#de0eb2147f)"><g transform="matrix(1, 0, 0, 1, 279, 496)"><g clip-path="url(#be88cdd5bd)"><g clip-path="url(#7294f97166)"><g clip-path="url(#40a12d8edf)"><path fill="#760000" d="M 0.433594 0.359375 L 215.253906 0.359375 L 215.253906 184.90625 L 0.433594 184.90625 Z M 0.433594 0.359375 " fill-opacity="1" fill-rule="nonzero"/></g></g></g></g></g></g><g clip-path="url(#082bba30ed)"><g clip-path="url(#34a9eaaf6a)"><g transform="matrix(1, 0, 0, 1, 285, 501)"><g clip-path="url(#4c26c8cb89)"><g clip-path="url(#6e2b475a7d)"><g clip-path="url(#937e6d14f0)"><path fill="#42035b" d="M 0.222656 0.324219 L 203.484375 0.324219 L 203.484375 174.9375 L 0.222656 174.9375 Z M 0.222656 0.324219 " fill-opacity="1" fill-rule="nonzero"/></g></g></g></g></g></g><g clip-path="url(#03754c7831)"><g clip-path="url(#74be0f9989)"><g transform="matrix(1, 0, 0, 1, 440, 404)"><g clip-path="url(#70940caf6a)"><g clip-path="url(#b5a2856c11)"><g clip-path="url(#a4d291c3e0)"><path fill="#760000" d="M 0.0703125 0.0898438 L 214.890625 0.0898438 L 214.890625 184.632812 L 0.0703125 184.632812 Z M 0.0703125 0.0898438 " fill-opacity="1" fill-rule="nonzero"/></g></g></g></g></g></g><g clip-path="url(#4a3157d4a6)"><g clip-path="url(#5a736419eb)"><g transform="matrix(1, 0, 0, 1, 445, 409)"><g clip-path="url(#8e76bb4184)"><g clip-path="url(#5e4b572963)"><g clip-path="url(#8796011607)"><path fill="#42035b" d="M 0.855469 0.0507812 L 204.117188 0.0507812 L 204.117188 174.664062 L 0.855469 174.664062 Z M 0.855469 0.0507812 " fill-opacity="1" fill-rule="nonzero"/></g></g></g></g></g></g><g clip-path="url(#a5d2004b32)"><path fill="#42035b" d="M 362.855469 742.660156 C 369.769531 737.21875 378.480469 733.960938 387.941406 733.960938 C 397.167969 733.960938 405.683594 737.054688 412.511719 742.257812 C 434.800781 738.65625 451.824219 719.332031 451.824219 696.023438 C 451.824219 670.152344 430.855469 686.972656 404.984375 686.972656 L 367.195312 686.972656 C 341.324219 686.972656 320.351562 670.152344 320.351562 696.023438 C 320.351562 720.429688 339.019531 740.46875 362.855469 742.660156 Z M 362.855469 742.660156 " fill-opacity="1" fill-rule="nonzero"/></g><path fill="#42035b" d="M 387.941406 739.410156 C 368.535156 739.410156 352.746094 755.203125 352.746094 774.609375 C 352.746094 794.015625 368.535156 809.808594 387.941406 809.808594 C 407.347656 809.808594 423.136719 794.015625 423.136719 774.609375 C 423.136719 755.203125 407.347656 739.410156 387.941406 739.410156 Z M 387.941406 739.410156 " fill-opacity="1" fill-rule="nonzero"/><g clip-path="url(#216f1a64d6)"><g clip-path="url(#fa2d218e6d)"><g clip-path="url(#96553265db)"><path fill="#42035b" d="M 670.265625 591.886719 C 668.960938 583.1875 670.441406 574.007812 675.125 565.785156 C 679.695312 557.769531 686.601562 551.902344 694.5 548.542969 C 702.40625 527.398438 694.042969 503.039062 673.796875 491.5 C 651.316406 478.691406 655.546875 505.238281 642.738281 527.714844 L 624.03125 560.546875 C 611.222656 583.027344 586.226562 592.921875 608.703125 605.730469 C 629.910156 617.8125 656.5625 611.511719 670.265625 591.886719 Z M 670.265625 591.886719 " fill-opacity="1" fill-rule="nonzero"/></g></g></g><g clip-path="url(#e9d89db377)"><g clip-path="url(#cd9285f19b)"><g clip-path="url(#a95bc854ab)"><path fill="#42035b" d="M 679.863281 568.484375 C 670.253906 585.347656 676.160156 606.882812 693.023438 616.488281 C 709.882812 626.097656 731.417969 620.199219 741.027344 603.335938 C 750.632812 586.476562 744.730469 564.941406 727.871094 555.332031 C 711.007812 545.726562 689.472656 551.625 679.863281 568.484375 Z M 679.863281 568.484375 " fill-opacity="1" fill-rule="nonzero"/></g></g></g><g clip-path="url(#b1ef4e51b8)"><g clip-path="url(#66544cbd26)"><g clip-path="url(#6e74d54a61)"><path fill="#42035b" d="M 80.730469 554.488281 C 88.898438 557.757812 96.070312 563.671875 100.800781 571.871094 C 105.410156 579.863281 106.984375 588.785156 105.890625 597.300781 C 120.144531 614.808594 145.390625 619.898438 165.578125 608.253906 C 187.992188 595.328125 162.941406 585.566406 150.015625 563.15625 L 131.136719 530.421875 C 118.210938 508.011719 122.300781 481.441406 99.886719 494.367188 C 78.75 506.5625 70.71875 532.746094 80.730469 554.488281 Z M 80.730469 554.488281 " fill-opacity="1" fill-rule="nonzero"/></g></g></g><g clip-path="url(#9c188a2b39)"><g clip-path="url(#8c8969c8f0)"><g clip-path="url(#73e2a8b81c)"><path fill="#42035b" d="M 96.078125 574.59375 C 86.378906 557.78125 64.816406 551.996094 48.003906 561.695312 C 31.191406 571.390625 25.402344 592.957031 35.097656 609.765625 C 44.796875 626.578125 66.363281 632.363281 83.171875 622.667969 C 99.984375 612.96875 105.773438 591.402344 96.078125 574.59375 Z M 96.078125 574.59375 " fill-opacity="1" fill-rule="nonzero"/></g></g></g><g clip-path="url(#97d021c2a6)"><g clip-path="url(#5c078afec1)"><g clip-path="url(#33964fdd00)"><path fill="#760000" d="M 225.25 681.859375 C 249.585938 695.828125 277.007812 699.132812 305.03125 692.414062 C 308.121094 691.675781 311.253906 693.535156 312.074219 696.613281 L 312.144531 696.871094 C 312.964844 699.949219 311.144531 703.121094 308.0625 703.933594 C 277.570312 711.980469 246.152344 707.984375 219.148438 692.476562 C 192.136719 676.972656 172.855469 651.863281 164.429688 621.472656 C 163.585938 618.402344 165.390625 615.21875 168.464844 614.386719 L 168.726562 614.316406 C 171.8125 613.480469 174.980469 615.238281 175.910156 618.285156 C 184.226562 645.859375 200.914062 667.878906 225.25 681.859375 Z M 225.25 681.859375 " fill-opacity="1" fill-rule="nonzero"/></g></g></g><g clip-path="url(#cca5db510b)"><g clip-path="url(#213105c3d1)"><g clip-path="url(#0380e9756c)"><path fill="#760000" d="M 544.664062 673.335938 C 569.003906 659.382812 585.703125 637.378906 594.050781 609.796875 C 594.972656 606.757812 598.160156 604.992188 601.230469 605.835938 L 601.488281 605.90625 C 604.5625 606.75 606.382812 609.925781 605.523438 612.996094 C 597.074219 643.378906 577.765625 668.484375 550.75 683.964844 C 523.726562 699.453125 492.316406 703.421875 461.832031 695.351562 C 458.753906 694.53125 456.917969 691.363281 457.75 688.289062 L 457.820312 688.03125 C 458.65625 684.945312 461.777344 683.09375 464.875 683.832031 C 492.878906 690.574219 520.308594 687.285156 544.664062 673.335938 Z M 544.664062 673.335938 " fill-opacity="1" fill-rule="nonzero"/></g></g></g><g clip-path="url(#6506694172)"><g clip-path="url(#21c5404f4e)"><g transform="matrix(1, 0, 0, 1, 440, 221)"><g clip-path="url(#1e9d255863)"><g clip-path="url(#a2a9fed204)"><g clip-path="url(#548a35a71f)"><path fill="#760000" d="M 215.191406 184.917969 L 0.367188 184.917969 L 0.367188 0.371094 L 215.191406 0.371094 Z M 215.191406 184.917969 " fill-opacity="1" fill-rule="nonzero"/></g></g></g></g></g></g><g clip-path="url(#d6bf3c7bd7)"><g clip-path="url(#e550bc9ca0)"><g transform="matrix(1, 0, 0, 1, 446, 226)"><g clip-path="url(#0dfa6dc3ac)"><g clip-path="url(#bb3ec98d58)"><g clip-path="url(#c951d9a120)"><path fill="#42035b" d="M 203.410156 174.953125 L 0.152344 174.953125 L 0.152344 0.339844 L 203.410156 0.339844 Z M 203.410156 174.953125 " fill-opacity="1" fill-rule="nonzero"/></g></g></g></g></g></g><g clip-path="url(#b7a9ab0b0d)"><g clip-path="url(#35a90d631a)"><g transform="matrix(1, 0, 0, 1, 279, 129)"><g clip-path="url(#feb97c00f5)"><g clip-path="url(#7446e1bef6)"><g clip-path="url(#495fa343a3)"><path fill="#760000" d="M 215.554688 184.644531 L 0.734375 184.644531 L 0.734375 0.101562 L 215.554688 0.101562 Z M 215.554688 184.644531 " fill-opacity="1" fill-rule="nonzero"/></g></g></g></g></g></g><g clip-path="url(#979b69a534)"><g clip-path="url(#d7921989b0)"><g transform="matrix(1, 0, 0, 1, 285, 134)"><g clip-path="url(#ae148bcd02)"><g clip-path="url(#8dac986c77)"><g clip-path="url(#360359b95b)"><path fill="#42035b" d="M 203.777344 174.679688 L 0.515625 174.679688 L 0.515625 0.0664062 L 203.777344 0.0664062 Z M 203.777344 174.679688 " fill-opacity="1" fill-rule="nonzero"/></g></g></g></g></g></g><g clip-path="url(#c5bbf4de80)"><g clip-path="url(#2c35d60ce4)"><g transform="matrix(1, 0, 0, 1, 119, 221)"><g clip-path="url(#9a0b34604a)"><g clip-path="url(#2433aa01f6)"><g clip-path="url(#a6f394378b)"><path fill="#760000" d="M 214.921875 184.917969 L 0.0976562 184.917969 L 0.0976562 0.371094 L 214.921875 0.371094 Z M 214.921875 184.917969 " fill-opacity="1" fill-rule="nonzero"/></g></g></g></g></g></g><g clip-path="url(#9557bd5d72)"><g clip-path="url(#54fce126ab)"><g transform="matrix(1, 0, 0, 1, 124, 226)"><g clip-path="url(#e32c909a82)"><g clip-path="url(#372b251142)"><g clip-path="url(#0a0b80b588)"><path fill="#42035b" d="M 204.140625 174.953125 L 0.882812 174.953125 L 0.882812 0.339844 L 204.140625 0.339844 Z M 204.140625 174.953125 " fill-opacity="1" fill-rule="nonzero"/></g></g></g></g></g></g><g clip-path="url(#ac06aee261)"><path fill="#42035b" d="M 411.125 67.34375 C 404.210938 72.785156 395.503906 76.042969 386.042969 76.042969 C 376.816406 76.042969 368.296875 72.949219 361.46875 67.746094 C 339.179688 71.347656 322.15625 90.671875 322.15625 113.980469 C 322.15625 139.851562 343.128906 123.03125 369 123.03125 L 406.785156 123.03125 C 432.65625 123.03125 453.628906 139.851562 453.628906 113.980469 C 453.628906 89.574219 434.960938 69.535156 411.125 67.34375 Z M 411.125 67.34375 " fill-opacity="1" fill-rule="nonzero"/></g><g clip-path="url(#3630e7967f)"><path fill="#42035b" d="M 386.042969 70.59375 C 405.449219 70.59375 421.234375 54.800781 421.234375 35.394531 C 421.234375 15.988281 405.449219 0.195312 386.042969 0.195312 C 366.632812 0.195312 350.847656 15.988281 350.847656 35.394531 C 350.847656 54.800781 366.636719 70.59375 386.042969 70.59375 Z M 386.042969 70.59375 " fill-opacity="1" fill-rule="nonzero"/></g><g clip-path="url(#169afa0140)"><g clip-path="url(#a8e9f9db2f)"><g clip-path="url(#cd341852ea)"><path fill="#42035b" d="M 103.71875 218.117188 C 105.019531 226.816406 103.539062 235.996094 98.855469 244.21875 C 94.289062 252.234375 87.382812 258.101562 79.480469 261.460938 C 71.578125 282.605469 79.9375 306.964844 100.1875 318.503906 C 122.667969 331.3125 118.433594 304.765625 131.242188 282.289062 L 149.953125 249.457031 C 162.757812 226.976562 187.757812 217.082031 165.277344 204.273438 C 144.074219 192.191406 117.417969 198.492188 103.71875 218.117188 Z M 103.71875 218.117188 " fill-opacity="1" fill-rule="nonzero"/></g></g></g><g clip-path="url(#1b50afd599)"><g clip-path="url(#561bc07799)"><g clip-path="url(#2a0805886f)"><path fill="#42035b" d="M 94.121094 241.519531 C 103.726562 224.65625 97.824219 203.121094 80.960938 193.515625 C 64.097656 183.90625 42.5625 189.804688 32.957031 206.667969 C 23.347656 223.527344 29.25 245.0625 46.113281 254.671875 C 62.976562 264.277344 84.511719 258.378906 94.121094 241.519531 Z M 94.121094 241.519531 " fill-opacity="1" fill-rule="nonzero"/></g></g></g><g clip-path="url(#9de1d2e9f3)"><g clip-path="url(#9ce7637a6c)"><g clip-path="url(#e34676469b)"><path fill="#42035b" d="M 693.253906 255.515625 C 685.082031 252.246094 677.910156 246.332031 673.183594 238.132812 C 668.574219 230.140625 667 221.21875 668.09375 212.703125 C 653.835938 195.195312 628.589844 190.105469 608.402344 201.75 C 585.992188 214.675781 611.039062 224.4375 623.964844 246.847656 L 642.847656 279.582031 C 655.773438 301.992188 651.683594 328.5625 674.09375 315.636719 C 695.234375 303.441406 703.265625 277.257812 693.253906 255.515625 Z M 693.253906 255.515625 " fill-opacity="1" fill-rule="nonzero"/></g></g></g><g clip-path="url(#2b6df841cb)"><g clip-path="url(#929cfdf3b0)"><g clip-path="url(#1c74df7f03)"><path fill="#42035b" d="M 677.90625 235.410156 C 687.601562 252.222656 709.167969 258.007812 725.980469 248.308594 C 742.789062 238.613281 748.582031 217.046875 738.882812 200.238281 C 729.1875 183.425781 707.621094 177.640625 690.808594 187.335938 C 674 197.035156 668.210938 218.601562 677.90625 235.410156 Z M 677.90625 235.410156 " fill-opacity="1" fill-rule="nonzero"/></g></g></g><g clip-path="url(#103a306e32)"><g clip-path="url(#b6d88da490)"><g clip-path="url(#9a79333746)"><path fill="#760000" d="M 548.734375 128.144531 C 524.402344 114.175781 496.976562 110.871094 468.953125 117.589844 C 465.863281 118.324219 462.730469 116.46875 461.910156 113.390625 L 461.839844 113.132812 C 461.019531 110.054688 462.839844 106.878906 465.921875 106.070312 C 496.417969 98.023438 527.835938 102.015625 554.835938 117.523438 C 581.847656 133.03125 601.132812 158.140625 609.554688 188.53125 C 610.398438 191.601562 608.59375 194.785156 605.519531 195.617188 L 605.261719 195.6875 C 602.171875 196.523438 599.003906 194.765625 598.078125 191.714844 C 589.757812 164.140625 573.070312 142.121094 548.734375 128.144531 Z M 548.734375 128.144531 " fill-opacity="1" fill-rule="nonzero"/></g></g></g><g clip-path="url(#f8d395da46)"><g clip-path="url(#a1a784406c)"><g clip-path="url(#663a3173db)"><path fill="#760000" d="M 229.320312 136.667969 C 204.980469 150.621094 188.28125 172.625 179.933594 200.207031 C 179.011719 203.246094 175.828125 205.011719 172.753906 204.167969 L 172.496094 204.097656 C 169.425781 203.25 167.605469 200.078125 168.460938 197.007812 C 176.910156 166.621094 196.21875 141.519531 223.234375 126.039062 C 250.257812 110.550781 281.667969 106.582031 312.152344 114.652344 C 315.230469 115.472656 317.066406 118.640625 316.234375 121.714844 L 316.164062 121.972656 C 315.328125 125.058594 312.210938 126.90625 309.109375 126.167969 C 281.105469 119.429688 253.675781 122.71875 229.320312 136.667969 Z M 229.320312 136.667969 " fill-opacity="1" fill-rule="nonzero"/></g></g></g><g clip-path="url(#4c038e7cd3)"><g clip-path="url(#0ce82dad8f)"><g clip-path="url(#3788987777)"><path fill="#760000" d="M 61.910156 404.078125 C 61.902344 432.136719 72.683594 457.570312 92.457031 478.535156 C 94.632812 480.847656 94.578125 484.488281 92.320312 486.730469 L 92.128906 486.921875 C 89.867188 489.164062 86.207031 489.164062 83.972656 486.894531 C 61.820312 464.449219 49.648438 435.207031 49.664062 404.070312 C 49.671875 372.925781 61.859375 343.703125 84.027344 321.273438 C 86.269531 319.011719 89.929688 318.996094 92.183594 321.25 L 92.375 321.4375 C 94.632812 323.699219 94.6875 327.324219 92.503906 329.644531 C 72.722656 350.582031 61.929688 376.015625 61.910156 404.078125 Z M 61.910156 404.078125 " fill-opacity="1" fill-rule="nonzero"/></g></g></g><g clip-path="url(#7655b60c61)"><g clip-path="url(#376c6094b7)"><g clip-path="url(#d844636a76)"><path fill="#760000" d="M 712.074219 404.089844 C 712.082031 376.03125 701.300781 350.597656 681.527344 329.636719 C 679.355469 327.324219 679.40625 323.679688 681.667969 321.4375 L 681.855469 321.246094 C 684.117188 319.003906 687.777344 319.003906 690.011719 321.273438 C 712.167969 343.722656 724.335938 372.960938 724.320312 404.097656 C 724.3125 435.242188 712.128906 464.464844 689.957031 486.894531 C 687.714844 489.15625 684.054688 489.171875 681.800781 486.917969 L 681.613281 486.730469 C 679.351562 484.46875 679.300781 480.84375 681.480469 478.523438 C 701.261719 457.585938 712.058594 432.152344 712.074219 404.089844 Z M 712.074219 404.089844 " fill-opacity="1" fill-rule="nonzero"/></g></g></g></g></g></svg>